<?xml version="1.0" standalone="no"?>
<!DOCTYPE svg PUBLIC "-//W3C//DTD SVG 20010904//EN"
 "http://www.w3.org/TR/2001/REC-SVG-20010904/DTD/svg10.dtd">
<svg version="1.0" xmlns="http://www.w3.org/2000/svg"
 width="500.000000pt" height="500.000000pt" viewBox="0 0 500.000000 500.000000"
 preserveAspectRatio="xMidYMid meet">
<metadata>
Created by potrace 1.14, written by Peter Selinger 2001-2017
</metadata>
<g transform="translate(0.000000,500.000000) scale(0.100000,-0.100000)"
fill="#000000" stroke="none">
<path d="M0 2500 l0 -2500 2500 0 2500 0 0 2500 0 2500 -2500 0 -2500 0 0
-2500z m1359 2213 c0 -11 -3 -13 -6 -5 -2 6 -13 12 -24 12 -16 0 -19 -7 -19
-48 0 -26 5 -53 10 -58 7 -7 0 -9 -22 -6 -18 3 -27 7 -20 9 19 7 16 92 -4 100
-9 3 -20 0 -25 -8 -7 -11 -9 -11 -9 4 0 14 9 17 60 17 51 0 60 -3 59 -17z m74
9 c-7 -4 -11 -28 -10 -59 2 -45 0 -52 -18 -55 -18 -4 -20 1 -20 59 l0 63 30 0
c17 0 25 -3 18 -8z m78 -1 c-9 -6 -12 -24 -10 -60 3 -41 1 -51 -11 -51 -12 0
-15 11 -13 52 1 32 -3 56 -10 60 -7 4 3 8 23 8 23 0 30 -3 21 -9z m124 -1 c4
-6 -5 -7 -23 -4 l-30 6 0 -52 0 -52 35 5 c27 5 32 3 24 -6 -6 -8 -26 -11 -48
-9 l-38 4 0 59 0 59 37 0 c20 0 40 -4 43 -10z m214 -7 c0 -11 -3 -13 -6 -5 -2
6 -12 12 -20 12 -13 0 -15 -11 -11 -57 4 -53 2 -58 -17 -58 -19 0 -21 5 -17
58 3 44 1 57 -10 57 -8 0 -19 -5 -26 -12 -7 -7 -12 -8 -12 -2 0 19 13 24 67
24 44 0 53 -3 52 -17z m125 -6 c9 -15 7 -21 -8 -33 -19 -14 -19 -14 2 -37 26
-27 28 -37 7 -37 -8 0 -21 14 -30 30 -19 36 -39 40 -33 6 4 -18 0 -26 -14 -29
-10 -3 -21 -1 -24 4 -3 5 0 9 6 9 8 0 11 18 8 55 l-3 56 39 -3 c24 -2 43 -10
50 -21z m79 16 c-27 -10 -7 -113 22 -113 29 0 49 103 23 113 -7 3 -1 6 13 6
26 1 26 1 18 -51 -12 -74 -45 -96 -90 -60 -16 14 -23 30 -23 58 -1 21 -5 42
-11 46 -5 4 6 7 25 7 19 0 29 -3 23 -6z m227 -10 c0 -15 -2 -15 -9 -4 -18 29
-40 4 -38 -43 1 -25 5 -46 9 -46 4 0 8 -4 8 -8 0 -5 -15 -6 -32 -4 -18 3 -27
7 -20 9 7 3 12 24 12 55 0 49 -1 50 -25 44 -14 -4 -25 -2 -25 4 0 6 26 10 60
10 51 0 60 -3 60 -17z m65 -42 c0 -54 -2 -60 -22 -64 -13 -2 -23 0 -23 4 0 5
5 9 10 9 15 0 13 97 -2 103 -7 3 -2 6 12 6 24 1 25 -2 25 -58z m91 51 c-8 -14
-10 -75 -2 -98 5 -18 3 -21 -16 -17 -21 4 -23 10 -23 64 0 55 2 59 23 59 13 0
21 -4 18 -8z m209 -47 c11 -30 23 -55 27 -55 4 0 8 -4 8 -9 0 -4 -11 -6 -25
-4 -13 3 -24 8 -23 12 3 23 -6 31 -31 31 -29 0 -50 -25 -28 -34 7 -2 1 -5 -12
-5 -17 -1 -21 2 -14 12 5 6 17 33 27 60 25 66 47 63 71 -8z m89 38 c-3 -12 7
-25 28 -38 41 -26 45 -40 16 -59 -27 -17 -78 -10 -78 10 0 12 4 12 25 -2 25
-16 45 -12 45 9 0 7 -14 20 -30 29 -28 16 -39 46 -23 61 12 13 21 7 17 -10z
m46 7 c0 -5 -7 -7 -15 -4 -8 4 -15 8 -15 10 0 2 7 4 15 4 8 0 15 -4 15 -10z
m230 -7 c0 -13 -3 -14 -12 -5 -7 7 -18 12 -25 12 -18 0 -18 -96 0 -103 6 -3 1
-6 -13 -6 -24 -1 -25 1 -22 54 4 50 2 55 -16 55 -11 0 -23 -6 -25 -12 -3 -8
-6 -6 -6 5 -1 14 8 17 59 17 50 0 60 -3 60 -17z m130 -3 c58 -58 -28 -141 -93
-90 -30 24 -34 55 -11 88 20 29 76 30 104 2z m93 13 c-8 -3 -13 -24 -13 -55
l0 -50 30 4 c19 3 29 1 27 -6 -2 -6 -21 -11 -43 -11 l-39 0 0 63 c0 60 1 62
25 61 14 0 19 -3 13 -6z m175 -9 c14 -10 22 -26 22 -44 0 -38 -32 -60 -90 -60
-29 0 -40 3 -31 9 9 6 12 24 10 60 l-4 51 35 0 c20 0 46 -7 58 -16z m162 -10
c0 -16 5 -24 13 -21 6 2 11 14 10 25 -2 15 2 20 12 16 17 -7 20 -30 4 -39 -6
-5 -3 -13 10 -22 17 -11 19 -18 11 -34 -8 -14 -21 -19 -53 -19 l-42 0 0 60 c0
50 3 60 18 60 12 0 17 -8 17 -26z m118 19 c-4 -14 13 -53 23 -53 5 0 12 14 16
30 4 22 11 30 27 30 11 0 16 -4 11 -8 -23 -16 -47 -66 -42 -88 3 -20 0 -24
-18 -24 -18 0 -21 4 -17 25 3 17 -4 36 -22 60 l-27 35 25 0 c15 0 25 -3 24 -7z
m-2058 -63 c0 -5 -7 -7 -15 -4 -8 4 -12 10 -9 15 6 11 24 2 24 -11z m547 -257
c10 -15 43 -104 75 -197 52 -159 58 -171 82 -174 14 -2 26 -8 26 -13 0 -5 -38
-9 -85 -9 -50 0 -85 4 -85 10 0 6 14 10 30 10 35 0 37 11 11 85 l-18 50 -80 3
c-90 3 -92 2 -117 -72 -21 -66 -21 -66 19 -66 19 0 35 -4 35 -10 0 -6 -30 -10
-70 -10 -40 0 -70 4 -70 10 0 6 11 10 24 10 17 0 27 7 31 23 3 12 29 93 58
180 64 196 93 233 134 170z m489 -10 c9 -47 -2 -64 -16 -26 -30 82 -167 34
-146 -51 4 -18 27 -37 75 -66 104 -60 134 -107 111 -175 -17 -50 -51 -65 -153
-65 -79 0 -85 1 -91 23 -9 33 -7 57 4 57 6 0 10 -5 10 -12 0 -30 33 -48 92
-48 66 0 98 21 98 66 0 41 -14 57 -93 108 -79 51 -97 75 -97 131 0 63 49 90
162 90 35 0 39 -3 44 -32z m437 11 c78 -40 117 -103 117 -192 0 -51 -5 -67
-32 -108 -66 -98 -184 -127 -282 -70 -125 73 -143 247 -34 340 65 56 155 68
231 30z m369 -69 c31 -44 78 -117 103 -162 26 -46 49 -83 51 -83 2 0 4 70 4
155 l0 155 -30 0 c-16 0 -30 5 -30 10 0 6 29 10 66 10 41 0 63 -4 59 -10 -3
-5 -15 -10 -25 -10 -19 0 -20 -10 -22 -192 -3 -169 -5 -193 -19 -196 -12 -2
-28 18 -54 65 -46 82 -182 293 -190 293 -3 0 -5 -76 -5 -170 l0 -170 30 0 c17
0 30 -4 30 -10 0 -6 -28 -10 -65 -10 -37 0 -65 4 -65 10 0 6 11 10 25 10 l25
0 -2 188 -3 187 -25 4 c-22 3 -23 4 -6 10 11 4 35 5 55 2 31 -6 44 -17 93 -86z
m-2009 68 c14 -17 38 -84 88 -253 l22 -75 49 149 c63 195 63 196 136 195 31
-1 48 -3 37 -6 -11 -3 -23 -8 -27 -12 -5 -4 3 -85 17 -181 14 -96 25 -178 25
-182 0 -5 11 -8 25 -8 14 0 25 -4 25 -10 0 -6 -32 -10 -75 -10 -43 0 -75 4
-75 10 0 6 11 10 25 10 14 0 25 1 25 3 0 2 -11 80 -25 173 -14 93 -25 170 -25
172 0 2 -4 1 -9 -2 -5 -3 -28 -66 -51 -138 -23 -73 -48 -154 -57 -180 -10 -33
-20 -48 -32 -48 -14 0 -29 38 -74 180 -54 166 -76 218 -78 173 0 -10 -10 -87
-23 -171 -12 -83 -20 -154 -18 -157 3 -3 16 -5 28 -5 13 0 26 -4 29 -10 4 -6
-18 -10 -59 -10 -37 0 -66 4 -66 10 0 6 9 10 20 10 23 0 22 -3 45 180 9 74 19
147 22 163 5 24 3 27 -21 27 -14 0 -26 5 -26 10 0 6 24 10 53 10 39 0 58 -5
70 -17z m64 -586 c34 -18 43 -34 43 -76 0 -27 -30 -64 -60 -73 -10 -3 -2 -11
22 -21 91 -38 104 -167 21 -207 -36 -17 -233 -27 -233 -11 0 6 11 11 25 11
l25 0 0 190 0 190 -26 0 c-16 0 -23 4 -18 11 10 17 163 5 201 -14z m323 8 c0
-6 -12 -11 -27 -10 l-28 0 -3 -130 c-4 -184 23 -245 106 -245 43 0 86 42 102
98 6 23 9 94 8 159 l-3 118 -27 3 c-58 7 -25 21 47 21 41 0 75 -5 75 -10 0 -5
-13 -9 -30 -9 l-30 0 0 -132 c0 -119 -3 -138 -24 -185 -31 -66 -68 -87 -140
-80 -41 4 -55 11 -82 40 -44 48 -54 91 -54 235 0 122 0 123 -22 122 -33 -3
-40 -1 -34 9 8 12 166 8 166 -4z m652 2 c4 -7 8 -27 8 -46 l0 -34 -23 34 c-20
30 -29 34 -70 37 l-47 3 2 -188 3 -188 28 -3 c15 -2 27 -8 27 -13 0 -5 -38 -9
-85 -9 -47 0 -85 4 -85 9 0 5 12 11 28 13 l27 3 3 188 2 187 -45 0 c-44 0 -76
-18 -87 -51 -9 -25 -15 -5 -11 32 l5 37 156 0 c109 0 159 -3 164 -11z m420 -1
c4 -6 8 -24 8 -41 l0 -30 -20 33 c-18 29 -24 32 -70 32 l-50 0 2 -187 3 -188
28 -3 c15 -2 27 -7 27 -12 0 -5 -38 -9 -85 -9 -47 0 -85 4 -85 9 0 5 12 10 28
12 l27 3 3 188 2 187 -37 -1 c-54 -1 -74 -11 -88 -45 l-13 -29 -1 41 c-1 22 2
44 5 47 11 11 308 4 316 -7z m268 5 c0 -6 -15 -11 -32 -13 l-33 -3 -3 -182 -2
-183 75 0 c71 0 76 2 87 25 13 30 32 34 24 5 -19 -66 -5 -60 -152 -59 -129 2
-179 12 -114 25 l30 7 -2 181 c-3 173 -4 181 -23 182 -34 3 -36 4 -30 14 8 13
175 13 175 1z m450 -10 c5 -11 10 -32 9 -48 l-1 -28 -14 32 c-14 33 -27 39
-82 42 -63 3 -72 -10 -72 -99 l0 -80 55 0 c52 0 55 1 55 25 0 14 5 25 10 25 6
0 10 -13 10 -29 0 -16 3 -43 6 -60 8 -38 -13 -43 -22 -6 -6 23 -11 25 -60 25
l-54 0 0 -84 c0 -47 4 -87 8 -90 4 -3 43 -2 85 1 71 5 78 8 83 29 4 13 10 24
16 24 5 0 7 -9 4 -20 -3 -11 -9 -29 -12 -40 -5 -19 -14 -20 -145 -19 -76 0
-139 4 -139 9 0 5 12 10 28 12 l27 3 1 175 c2 179 -2 200 -37 200 -11 0 -19 4
-19 9 0 5 56 9 125 10 113 1 125 -1 135 -18z m-580 -687 c0 -28 9 -35 31 -23
23 12 24 6 5 -24 -8 -12 -17 -33 -21 -46 -6 -21 -5 -23 14 -18 18 4 19 2 11
-13 -15 -27 -12 -50 5 -50 10 0 15 -10 15 -33 0 -19 3 -37 6 -40 8 -8 36 7 59
29 18 18 20 18 29 -13 11 -34 -76 -70 -181 -76 l-83 -4 0 71 c0 82 17 143 61
227 32 59 48 64 49 13z m-2296 -242 c-6 -31 -5 -34 14 -28 19 6 19 5 6 -31
-10 -30 -10 -40 -1 -47 9 -6 2 -19 -25 -46 -36 -36 -50 -70 -28 -70 6 0 5 -8
-2 -20 -7 -11 -15 -20 -18 -20 -17 1 -93 136 -110 194 l-20 69 31 -29 c25 -24
32 -26 40 -14 5 8 8 27 6 43 -4 27 6 36 18 17 11 -17 24 -11 31 14 5 22 8 23
35 13 26 -10 28 -15 23 -45z m-241 -19 c5 -26 4 -26 -9 -8 -16 22 -18 35 -5
35 5 0 11 -12 14 -27z m3757 -68 c0 -2 -18 -32 -40 -66 l-40 -62 0 41 c0 35 2
39 20 35 18 -5 20 0 20 36 0 39 1 41 20 31 11 -6 20 -13 20 -15z m-3758 -133
c16 -24 28 -46 25 -48 -6 -6 -100 31 -131 51 -25 16 -40 51 -26 60 4 2 11 19
14 37 l7 33 40 -45 c22 -25 54 -64 71 -88z m1375 89 c52 -38 98 -97 128 -165
30 -69 33 -167 8 -260 -25 -94 -21 -200 11 -272 20 -45 25 -73 23 -116 -1 -32
-2 -58 -2 -58 0 0 -22 7 -48 15 -26 8 -45 10 -42 5 9 -15 0 -12 -44 10 -22 12
-44 33 -51 49 -29 72 -105 106 -280 127 -107 12 -206 78 -231 152 -19 58 -3
151 37 213 18 29 41 74 50 101 20 60 29 66 43 28 12 -36 21 -38 40 -8 13 21
14 20 33 -25 11 -26 24 -47 29 -47 4 0 16 22 25 49 l18 48 24 -29 c29 -34 42
-24 42 30 0 38 3 39 37 12 37 -29 55 -26 47 8 -3 15 -15 39 -25 54 -10 15 -19
36 -19 48 0 20 1 20 25 4 36 -23 59 -11 51 26 -7 40 17 40 71 1z m-460 -81
c-11 -16 -16 -18 -24 -8 -27 34 -33 57 -22 84 l10 28 25 -42 c22 -37 24 -44
11 -62z m2923 82 c0 -2 -13 -20 -30 -40 -28 -35 -90 -81 -90 -67 0 4 14 30 32
58 26 43 37 52 60 52 15 0 28 -1 28 -3z m140 0 c0 -18 -27 -42 -65 -58 l-40
-16 40 40 c38 38 65 52 65 34z m-1198 -109 c-51 -73 -65 -114 -59 -180 11
-109 8 -114 -96 -162 -51 -24 -109 -54 -129 -67 -21 -13 -40 -24 -43 -24 -7 0
-6 81 1 173 6 70 10 80 41 111 23 22 47 36 75 40 45 7 83 25 113 53 77 70 107
94 112 89 3 -3 -4 -17 -15 -33z m41 -78 c-29 -52 -39 -62 -41 -45 -3 19 35
106 62 139 9 12 12 11 14 -7 2 -11 -14 -51 -35 -87z m-1953 -2 c0 -28 -28 -72
-81 -127 -5 -6 -15 5 -24 27 -19 46 -19 61 0 53 8 -3 22 -9 30 -12 10 -4 15 0
15 10 0 9 7 16 15 16 13 0 15 11 10 68 l-6 67 20 -35 c11 -19 20 -49 21 -67z
m3033 15 c-34 -37 -53 -67 -61 -98 -11 -45 -46 -89 -73 -94 -8 -1 -18 -4 -24
-8 -11 -6 -172 -58 -182 -58 -8 0 6 48 29 103 11 26 24 47 29 47 5 0 9 9 9 20
0 23 42 44 159 82 36 12 86 29 111 39 25 9 47 18 49 18 2 1 -18 -23 -46 -51z
m-4381 -18 c7 0 7 -4 0 -12 -5 -7 -12 -22 -15 -33 -2 -11 -4 9 -4 45 0 36 2
50 4 33 2 -18 9 -33 15 -33z m4738 52 c0 -5 -7 -17 -15 -28 -14 -18 -14 -17
-4 9 12 27 19 34 19 19z m170 5 c0 -2 -10 -12 -22 -23 l-23 -19 19 23 c18 21
26 27 26 19z m-4071 -77 c4 0 22 11 41 25 37 27 50 25 50 -11 0 -24 14 -32 25
-14 11 18 25 0 25 -32 0 -30 34 -98 50 -98 4 0 13 7 21 16 11 14 14 13 26 -10
17 -33 29 -33 46 1 l14 27 12 -22 c15 -28 25 -28 38 1 11 22 11 22 23 -8 6
-16 12 -67 14 -112 l3 -83 -26 6 c-49 11 -96 27 -131 44 -35 18 -282 232 -288
250 -2 5 7 24 20 42 l23 33 3 -27 c2 -16 7 -28 11 -28z m3681 31 c-1 -3 -9
-22 -18 -41 -12 -23 -32 -42 -62 -56 -25 -12 -46 -20 -48 -19 -16 14 95 136
116 128 6 -3 12 -8 12 -12z m417 -17 c-2 -3 -19 -9 -38 -14 l-33 -10 35 29
c26 22 35 26 37 14 2 -8 2 -17 -1 -19z m-77 22 c0 -2 -8 -10 -17 -17 -16 -13
-17 -12 -4 4 13 16 21 21 21 13z m-1520 -33 l0 -27 30 29 c17 16 30 23 30 17
0 -10 5 -10 20 -2 18 10 20 8 20 -26 l0 -36 26 16 c14 10 32 16 41 14 30 -6
-187 -148 -226 -148 -20 0 -11 74 16 133 30 62 43 72 43 30z m1211 -6 c-10 -9
-11 -8 -5 6 3 10 9 15 12 12 3 -3 0 -11 -7 -18z m-4111 -47 c40 -60 110 -152
144 -188 l31 -33 -73 5 c-72 6 -107 18 -149 55 -30 25 -32 65 -3 56 16 -5 20
-2 20 15 0 12 -5 31 -11 42 -8 15 -8 22 1 28 8 5 10 19 5 41 -8 38 -1 34 35
-21z m122 -4 c62 -29 128 -65 147 -79 37 -29 201 -185 201 -193 0 -2 -7 -4
-15 -4 -9 0 -29 -7 -45 -15 -28 -15 -31 -14 -94 34 -36 26 -78 54 -94 60 -15
7 -42 29 -59 49 -17 20 -58 69 -90 107 -62 74 -78 95 -69 95 3 0 56 -24 118
-54z m4377 -33 c0 -74 -1 -76 -12 -43 -9 23 -9 37 -3 42 11 8 11 8 -23 30
l-23 16 28 16 c16 8 30 15 32 16 1 0 2 -35 1 -77z m-4911 10 c1 -16 -4 -41
-10 -56 l-11 -29 -13 24 c-15 26 -19 72 -5 64 5 -3 14 1 21 9 17 20 17 19 18
-12z m4668 -11 c-17 -16 -18 -16 -5 5 7 12 15 20 18 17 3 -2 -3 -12 -13 -22z
m-141 -2 c-3 -5 -12 -10 -18 -10 -7 0 -6 4 3 10 19 12 23 12 15 0z m-574 -77
c-23 -43 -64 -109 -93 -148 -70 -92 -118 -117 -231 -120 -78 -2 -85 -4 -157
-48 -54 -33 -100 -51 -165 -67 -189 -44 -217 -53 -246 -78 -17 -13 -33 -21
-37 -18 -4 4 -8 40 -10 81 l-4 73 41 45 c63 68 184 126 337 162 33 8 120 34
194 60 104 35 136 43 147 33 11 -9 17 -7 29 10 20 29 28 28 52 -9 l19 -31 17
23 c9 13 16 30 16 38 0 10 7 8 24 -8 l25 -23 6 36 c6 31 10 35 22 24 11 -9 16
-9 24 3 5 8 9 20 9 27 0 6 5 12 11 12 5 0 -8 -35 -30 -77z m-351 54 c0 -8 -10
-18 -22 -24 -38 -17 -200 -65 -205 -60 -2 3 29 23 69 45 52 29 77 37 85 30 9
-7 20 -6 35 5 29 20 38 21 38 4z m971 -10 c-10 -9 -11 -8 -5 6 3 10 9 15 12
12 3 -3 0 -11 -7 -18z m-109 -56 c-14 -9 -24 -61 -12 -61 5 0 10 6 10 13 0 8
3 8 9 -2 8 -13 12 -13 28 -1 16 13 16 12 -1 -8 -11 -12 -21 -20 -24 -18 -2 3
-22 -2 -44 -10 -22 -8 -42 -14 -43 -14 -2 0 16 39 38 86 39 81 42 85 45 54 2
-18 -1 -36 -6 -39z m-82 -12 c-16 -30 -38 -73 -50 -95 -11 -23 -30 -50 -42
-60 -23 -20 -19 -10 13 37 10 14 22 44 27 67 l10 41 -47 -18 c-25 -10 -63 -26
-83 -35 -63 -27 -42 -7 25 25 34 16 87 44 117 62 30 19 56 33 57 32 2 0 -11
-26 -27 -56z m-4284 -39 c4 -12 9 -11 24 8 l19 22 24 -22 c31 -29 53 -72 78
-155 11 -36 23 -72 26 -79 7 -18 -166 82 -190 110 -10 12 -34 52 -53 90 -28
54 -33 71 -22 77 20 13 23 11 26 -18 1 -14 5 -29 8 -32 7 -7 43 39 45 59 1 8
4 2 6 -15 2 -16 6 -37 9 -45z m-73 -98 c7 -9 -7 -5 -30 9 -42 24 -43 25 -42
79 l0 55 30 -64 c16 -35 35 -71 42 -79z m4507 128 c0 -5 -5 -10 -11 -10 -5 0
-7 5 -4 10 3 6 8 10 11 10 2 0 4 -4 4 -10z m-4175 -54 c50 -41 61 -45 142 -55
48 -7 105 -14 126 -17 26 -4 58 -23 109 -65 39 -33 76 -58 82 -55 6 2 41 15
79 27 67 23 68 23 115 5 26 -10 76 -25 112 -33 63 -14 78 -19 69 -27 -9 -7
-268 -130 -312 -147 -92 -36 -335 -17 -442 36 -74 36 -98 67 -150 195 -52 129
-61 155 -44 123 17 -33 27 -28 39 17 6 22 13 40 16 40 3 0 30 -20 59 -44z
m4196 -50 c-13 -14 -20 -29 -16 -35 7 -13 -23 -47 -33 -36 -4 3 2 11 12 17 14
8 15 12 6 18 -19 12 -38 1 -33 -18 5 -20 -48 -47 -77 -39 -13 3 -18 1 -14 -6
3 -7 -1 -4 -9 6 -17 21 -31 22 -23 2 3 -9 -3 -20 -14 -27 -33 -21 -25 -41 13
-35 17 3 26 3 20 0 -7 -2 -13 -8 -13 -13 0 -13 49 -21 68 -11 16 9 16 10 0 16
-10 4 -18 13 -18 21 0 17 3 16 -38 4 -29 -8 -32 -7 -22 5 7 8 15 13 19 11 4
-3 24 -1 45 4 28 6 36 6 27 -3 -15 -15 -14 -40 2 -34 9 3 18 -8 26 -29 12 -35
25 -42 36 -24 5 8 11 8 20 0 8 -6 19 -10 27 -9 26 3 39 -1 33 -11 -3 -5 -1
-10 4 -10 6 0 11 5 11 10 0 6 5 10 10 10 21 0 8 -17 -25 -33 -54 -26 -88 -21
-184 28 -49 24 -91 41 -95 38 -3 -3 -8 1 -11 10 -7 16 30 81 61 108 11 10 48
24 83 33 35 9 75 25 90 36 35 26 39 25 12 -4z m-476 -1 c-11 -8 -25 -19 -31
-24 -7 -5 -15 -7 -18 -4 -3 4 -6 2 -6 -3 0 -6 -9 -20 -21 -32 -11 -12 -17 -27
-14 -32 3 -6 -1 -10 -9 -10 -19 0 -19 2 -4 34 11 25 36 46 88 73 33 17 40 16
15 -2z m-3843 -193 c24 -17 57 -45 73 -62 17 -18 49 -45 73 -60 38 -25 41 -29
23 -35 -42 -13 -78 -6 -161 30 -123 52 -168 80 -232 143 -55 53 -58 59 -58
104 l0 47 120 -69 c65 -37 138 -82 162 -98z m4017 105 c-9 -7 -19 -22 -23 -35
-4 -12 -11 -20 -16 -17 -4 3 -11 -2 -14 -11 -3 -8 -11 -12 -16 -9 -14 9 6 35
26 35 8 0 14 5 14 12 0 15 32 50 39 42 3 -3 -1 -11 -10 -17z m-104 -57 c13 -6
15 -9 5 -9 -8 0 -22 4 -30 9 -18 12 -2 12 25 0z m-4171 -37 c17 -21 17 -21 -3
-16 -13 3 -21 13 -21 26 0 11 1 18 3 16 1 -2 10 -14 21 -26z m4566 13 c0 -3
-4 -8 -10 -11 -5 -3 -10 -1 -10 4 0 6 5 11 10 11 6 0 10 -2 10 -4z m-449 -55
c64 -23 132 -38 214 -47 35 -4 88 -21 129 -40 39 -19 76 -34 82 -34 12 0 172
-63 205 -80 16 -8 62 -7 89 3 8 3 34 10 58 15 41 10 42 10 41 -17 -1 -17 -3
-20 -6 -8 -2 9 -11 17 -18 17 -25 0 -70 -21 -83 -38 -11 -15 -14 -15 -22 -2
-8 12 -10 11 -10 -7 0 -21 10 -28 33 -24 4 0 7 -3 7 -8 0 -5 23 -7 50 -5 l50
3 0 -168 c0 -168 0 -169 -22 -170 -83 -2 -157 -15 -177 -31 l-23 -17 21 -20
c21 -19 21 -21 5 -38 -11 -10 -28 -15 -45 -13 -15 3 -25 0 -22 -4 3 -5 -5 -12
-17 -15 -17 -4 -20 -11 -16 -29 3 -12 2 -26 -4 -29 -22 -13 -9 -23 20 -15 24
7 30 6 30 -6 0 -27 -21 -56 -36 -50 -8 3 -14 -1 -14 -10 0 -8 5 -12 11 -8 8 4
8 0 0 -15 -7 -11 -16 -21 -22 -21 -6 0 -7 -5 -4 -11 4 -6 13 -8 21 -5 9 3 14
-2 14 -14 0 -11 4 -20 10 -20 5 0 7 7 4 15 -8 19 3 19 37 1 24 -12 32 -11 69
5 49 22 58 19 42 -16 -7 -15 -8 -25 -2 -26 6 -1 16 -2 23 -3 21 -2 13 -30 -13
-42 -61 -29 -77 -34 -110 -34 -68 1 -80 0 -80 -12 0 -6 -6 -16 -14 -22 -21
-16 -25 -51 -6 -51 8 0 14 6 12 13 -1 8 3 12 10 10 7 -3 15 -13 16 -24 2 -10
11 -25 20 -32 16 -12 16 -14 0 -23 -10 -6 -18 -14 -18 -20 0 -5 -6 -16 -12
-23 -11 -11 -15 -11 -25 3 -6 9 -15 12 -19 8 -5 -4 -3 -11 3 -15 10 -6 10 -17
1 -45 -15 -49 -34 -42 -30 11 4 41 -10 57 -22 26 -3 -9 -12 -14 -20 -11 -10 4
-12 -7 -10 -51 3 -47 1 -53 -7 -32 -6 14 -11 45 -11 69 l-1 44 -19 -23 c-11
-14 -18 -17 -18 -8 0 9 -10 13 -27 12 -42 -2 -43 -3 -43 -19 0 -8 -9 -19 -19
-25 -13 -6 -17 -17 -14 -30 3 -12 0 -20 -7 -20 -7 0 -10 13 -9 35 2 19 -1 34
-6 32 -6 -1 -9 -17 -9 -35 2 -36 -12 -31 -18 6 -4 31 -21 28 -24 -4 -2 -14 -5
-29 -8 -32 -6 -5 -7 5 -10 52 -1 27 -22 31 -29 6 -3 -11 -11 -20 -19 -20 -8 0
-9 3 -3 8 14 9 37 62 27 62 -17 -1 -30 -17 -41 -52 -7 -21 -17 -40 -22 -43 -5
-4 -9 -16 -10 -28 0 -21 -1 -21 -9 -2 -5 11 -9 14 -9 8 -1 -18 -28 -16 -35 2
-3 9 -3 37 -1 63 4 36 3 41 -4 22 -9 -22 -10 -21 -10 15 0 60 -13 139 -23 146
-5 3 -3 18 4 34 10 22 10 29 0 33 -16 5 -15 22 2 22 8 0 16 17 19 45 7 47 -1
113 -12 98 -3 -5 -24 -22 -46 -38 l-40 -29 46 50 c25 27 54 62 63 78 21 32 23
100 5 122 -6 8 -7 14 -2 14 6 0 9 20 7 45 -2 32 1 47 12 53 14 8 14 12 0 47
-17 41 -11 55 26 55 54 0 92 44 90 105 -1 32 -9 47 -37 73 -40 37 -85 44 -85
12 0 -11 5 -20 10 -20 6 0 10 -4 10 -10 0 -5 -9 -10 -20 -10 -11 0 -20 5 -20
10 0 7 -5 7 -12 -1 -7 -6 -33 -21 -58 -33 -49 -23 -55 -42 -30 -102 8 -18 10
-39 5 -50 -4 -10 -9 -29 -11 -42 -1 -12 -16 -35 -33 -50 -17 -14 -31 -32 -31
-40 0 -7 -7 -15 -16 -19 -9 -3 -14 -13 -11 -24 3 -11 1 -19 -5 -19 -5 0 -6 -5
-2 -12 4 -6 -1 -17 -11 -25 -11 -7 -13 -13 -6 -13 8 0 7 -5 -4 -16 -9 -9 -15
-28 -14 -43 3 -32 -17 -71 -36 -71 -8 0 -15 -6 -15 -14 0 -21 59 -254 82 -321
29 -86 32 -142 7 -148 -10 -3 -22 -1 -25 4 -3 5 0 9 5 9 6 0 11 5 11 12 0 6
-11 1 -24 -11 -30 -29 -49 -19 -41 20 9 38 -17 40 -33 2 l-12 -28 5 31 c3 22
0 31 -10 31 -8 0 -12 -4 -9 -9 3 -4 -1 -15 -10 -23 -8 -8 -17 -12 -20 -7 -5 8
10 96 20 115 3 7 -1 4 -10 -6 -8 -11 -18 -37 -21 -60 -6 -32 -9 -37 -17 -23
-5 9 -7 26 -4 39 5 18 4 18 -5 -3 -6 -14 -16 -36 -23 -49 -13 -28 -15 -113 -3
-155 7 -26 6 -28 -7 -17 -9 8 -16 24 -16 38 0 13 -6 39 -14 58 -15 35 -16 52
-3 72 4 6 4 13 -1 15 -4 1 -18 19 -30 40 -22 35 -22 36 -2 31 17 -4 20 0 21
26 3 61 3 66 10 71 3 3 9 15 13 26 5 18 1 24 -22 32 -19 6 -32 19 -36 36 -8
32 -51 53 -72 35 -20 -16 -18 -28 12 -71 l27 -38 -25 -37 c-14 -21 -31 -55
-38 -77 -9 -28 -15 -35 -21 -25 -7 12 -9 11 -9 -1 0 -13 -1 -13 -10 0 -13 21
-13 3 1 -22 9 -16 8 -19 -3 -13 -23 14 -58 48 -58 58 0 5 -11 18 -25 29 -14
11 -25 25 -25 33 0 12 -85 105 -96 105 -14 0 -55 60 -64 95 -14 53 -36 107
-71 180 -44 93 -62 264 -39 386 21 111 129 219 258 259 36 11 92 37 126 58 88
54 100 58 270 92 85 16 165 35 178 40 33 14 135 5 199 -19z m679 24 c0 -7 -94
-98 -116 -112 -17 -10 -17 -11 4 -6 13 3 22 1 22 -6 0 -7 4 -9 10 -6 10 6 89
-13 104 -26 23 -20 -31 -20 -92 0 -98 33 -102 39 -45 71 26 16 61 42 77 59 30
31 36 36 36 26z m-4707 -65 c95 -54 85 -69 -34 -49 l-79 13 0 42 c0 42 1 42
28 35 15 -5 53 -23 85 -41z m1277 7 c14 -5 62 -15 108 -22 120 -20 180 -63
226 -160 21 -45 49 -66 96 -72 32 -5 44 -12 56 -34 8 -16 18 -29 22 -29 13 0
62 -116 62 -146 -1 -42 -24 -134 -45 -173 -9 -19 -21 -62 -26 -98 -5 -35 -16
-74 -24 -87 -13 -20 -26 -72 -39 -161 -2 -11 -17 -42 -34 -69 -18 -28 -32 -61
-32 -75 0 -15 -5 -33 -10 -41 -7 -10 -8 0 -5 35 5 44 2 39 -22 -39 -15 -50
-28 -85 -31 -78 -2 6 2 28 8 49 23 78 40 156 35 161 -3 3 -5 -2 -5 -12 0 -9
-6 -19 -13 -22 -7 -2 -14 -14 -15 -27 -1 -12 -6 -42 -11 -67 l-9 -45 -1 54
c-1 30 -4 51 -8 47 -4 -3 -13 6 -20 21 l-13 28 6 -35 c4 -19 10 -36 15 -38 5
-2 9 -8 9 -13 0 -6 -4 -7 -10 -4 -5 3 -10 2 -10 -4 0 -5 5 -11 12 -13 7 -3 8
-9 3 -19 -5 -8 -8 -24 -6 -36 1 -13 -2 -23 -7 -23 -15 0 -65 249 -63 320 1 46
-2 61 -9 50 -10 -16 -13 -10 -13 32 0 10 -10 29 -23 43 -12 13 -24 34 -26 46
-4 30 -37 34 -40 6 -4 -65 -2 -79 13 -93 10 -9 15 -22 13 -29 -3 -7 2 -15 10
-18 9 -4 16 -16 16 -27 0 -11 4 -20 9 -20 13 0 38 -68 46 -128 10 -74 -2 -165
-21 -158 -8 3 -15 0 -15 -7 -1 -7 -5 4 -9 23 -7 31 -8 28 -9 -25 -1 -33 -6
-69 -11 -80 l-9 -20 -1 20 c-1 11 -1 36 -1 55 l2 35 -15 -30 c-8 -16 -17 -38
-20 -48 -6 -20 -26 -23 -27 -4 0 6 -4 3 -9 -8 -9 -20 -9 -20 -9 0 -1 12 3 25
8 30 13 15 24 115 12 115 -6 0 -13 -17 -16 -37 -4 -21 -10 -49 -15 -63 -5 -14
-11 -36 -13 -50 -2 -14 -5 22 -7 80 l-3 105 -9 -72 c-5 -40 -15 -89 -23 -110
l-15 -38 3 59 c1 33 -2 61 -8 63 -6 2 -10 -9 -11 -24 -1 -87 -5 -133 -11 -133
-5 0 -7 19 -7 42 1 24 -3 49 -8 55 -6 7 -8 42 -5 78 2 36 0 65 -4 65 -5 0 -10
-26 -11 -57 -1 -32 -2 -67 -3 -78 -1 -11 -3 -35 -4 -53 -1 -39 -16 -35 -25 8
-3 16 -9 44 -12 60 -4 17 -10 30 -15 30 -5 0 -8 3 -8 8 5 30 -3 72 -12 67 -6
-4 -8 -22 -4 -46 7 -41 -3 -169 -14 -169 -3 0 -4 22 -3 49 2 27 -1 58 -7 68
-9 15 -10 13 -11 -17 0 -19 -4 -42 -10 -50 -5 -8 -5 -17 0 -20 4 -3 0 -29 -11
-59 -10 -30 -16 -58 -13 -62 3 -5 0 -9 -5 -9 -6 0 -11 8 -12 18 -3 53 -1 111
5 120 4 6 -3 16 -14 22 -19 10 -20 8 -20 -57 0 -52 -3 -64 -12 -55 -8 8 -12
52 -11 139 1 114 4 129 24 156 15 20 18 32 11 35 -9 3 -9 9 -1 24 8 15 8 22 0
28 -9 5 -8 10 4 20 20 16 19 30 -2 30 -15 0 -15 1 0 18 19 20 23 37 7 27 -6
-4 -7 6 -4 25 4 19 2 30 -5 30 -6 0 -11 -5 -11 -11 0 -5 -4 -7 -10 -4 -5 3
-10 -2 -10 -12 0 -11 -5 -24 -11 -30 -5 -5 -11 -34 -12 -64 -1 -30 -5 -57 -10
-60 -4 -3 -2 -20 4 -38 13 -38 7 -180 -8 -190 -6 -3 -10 -29 -9 -58 2 -68 -10
-55 -19 21 -5 40 -4 57 3 52 6 -4 8 2 5 14 -5 20 -18 26 -26 13 -2 -5 -1 -1 2
7 9 28 2 84 -13 96 -12 8 -12 14 -4 22 14 14 11 17 -21 27 -22 7 -23 5 -19
-19 3 -14 1 -26 -3 -26 -5 0 -9 -7 -9 -15 0 -8 4 -15 10 -15 5 0 7 -16 4 -37
-2 -22 1 -45 10 -58 18 -28 22 -64 9 -95 l-11 -25 -9 33 c-4 18 -13 32 -18 32
-6 -1 -9 -6 -8 -10 2 -5 5 -28 8 -52 l6 -43 -15 30 c-8 17 -17 39 -21 50 -5
16 -8 17 -15 5 -5 -8 -7 -24 -4 -35 5 -19 4 -19 -9 -2 -13 16 -15 16 -21 2 -3
-9 -10 -13 -16 -10 -6 4 -10 -5 -10 -19 0 -15 -6 -26 -13 -26 -9 0 -12 11 -9
33 2 17 -1 43 -7 57 -9 24 -10 24 -11 -10 -1 -30 -3 -32 -11 -15 -7 15 -8 11
-4 -15 18 -105 18 -105 5 -94 -11 11 -38 158 -41 229 -2 23 -4 19 -9 -15 -3
-25 -5 -69 -4 -98 2 -60 -7 -67 -25 -17 -6 19 -18 34 -24 32 -7 -1 -11 6 -11
16 1 10 -3 16 -10 14 -6 -3 -19 3 -29 12 -18 15 -18 14 -6 -11 10 -23 9 -31
-5 -53 -19 -29 -40 -34 -32 -7 12 41 36 155 36 170 -1 10 -7 5 -15 -13 l-15
-30 6 35 5 35 -26 -43 c-14 -23 -24 -45 -22 -50 3 -4 -1 -13 -9 -20 -18 -17
-18 -9 6 90 25 106 24 115 -6 53 -20 -40 -24 -44 -20 -20 4 27 3 28 -9 11 -8
-10 -17 -43 -21 -72 -5 -45 -9 -53 -20 -43 -8 7 -12 14 -9 17 3 3 0 11 -6 19
-9 10 -8 13 2 13 9 0 7 4 -4 13 -9 6 -24 32 -32 57 -11 35 -13 37 -8 10 4 -19
7 -48 7 -65 1 -16 4 -32 7 -35 3 -3 9 -25 12 -50 l5 -45 -19 38 c-11 20 -21
37 -23 37 -3 0 -1 -97 3 -110 1 -3 6 2 11 10 8 12 10 11 10 -7 0 -12 -4 -25
-10 -28 -5 -3 -10 -1 -10 5 0 14 -50 80 -60 80 -5 0 7 -30 26 -67 19 -38 33
-72 31 -77 -1 -4 -19 13 -40 40 -21 27 -37 40 -37 31 0 -9 4 -18 8 -21 12 -7
14 -76 3 -76 -5 0 -7 -10 -3 -22 3 -14 2 -19 -6 -14 -7 4 -12 14 -12 22 0 8
-4 13 -10 9 -5 -3 -7 -12 -4 -19 3 -8 0 -17 -7 -22 -9 -5 -11 2 -6 29 3 20 1
39 -4 42 -5 4 -9 -3 -9 -14 0 -29 -17 -26 -24 4 -8 30 -36 34 -36 5 0 -11 -4
-20 -8 -20 -5 0 -7 -13 -4 -29 2 -16 -1 -32 -7 -35 -11 -7 -18 15 -24 74 -3
32 -4 31 -5 -8 -1 -26 -6 -41 -12 -37 -6 4 -11 -8 -11 -27 -1 -23 -3 -26 -6
-11 -2 13 -9 23 -14 23 -5 0 -9 12 -9 27 0 36 -9 25 -12 -15 -3 -36 -9 -40
-29 -15 -10 11 -10 14 -1 9 8 -5 12 -1 12 13 0 25 -20 39 -20 14 -1 -16 -3
-16 -19 4 -10 12 -21 19 -25 16 -3 -4 -6 32 -6 78 0 55 4 79 9 70 8 -12 14
-13 35 -3 14 6 26 16 26 22 0 6 -4 9 -9 5 -5 -3 -12 -1 -16 5 -4 7 -12 7 -26
0 -19 -11 -19 -3 -18 417 1 235 4 418 6 407 2 -12 21 -40 43 -62 32 -34 40
-39 50 -27 10 12 15 12 36 -3 13 -9 24 -22 24 -28 0 -6 13 -11 29 -11 26 0 28
3 20 23 -6 17 -4 28 6 38 8 8 15 23 15 33 0 14 -2 15 -9 5 -5 -8 -17 -12 -27
-10 -16 3 -13 7 14 21 17 10 32 24 32 32 0 18 12 19 28 3 19 -19 27 0 11 29
-11 20 -11 27 -1 30 6 3 12 13 12 23 0 15 -8 17 -52 15 -42 -2 -56 -7 -73 -29
-16 -20 -30 -26 -59 -26 -33 0 -37 2 -26 15 7 8 23 15 37 15 18 0 24 5 21 17
-2 10 -10 18 -18 19 -28 1 -80 26 -80 37 1 19 26 47 41 47 10 0 15 13 15 40 1
28 -3 40 -12 40 -8 0 -14 -4 -14 -10 0 -5 -6 -7 -13 -4 -14 5 -39 -18 -36 -32
1 -5 0 -16 -4 -24 -3 -8 -8 -22 -10 -30 -3 -8 -6 5 -6 30 -1 44 1 46 66 95 94
70 135 95 159 95 12 0 54 -14 95 -30 73 -30 74 -30 134 -16 65 16 147 14 277
-7 l78 -12 -26 -33 c-34 -43 -94 -73 -132 -66 -24 5 -33 1 -51 -21 -11 -15
-21 -32 -21 -36 0 -18 49 -8 77 14 51 43 68 41 34 -2 -18 -22 -47 -45 -65 -51
-34 -11 -40 -19 -56 -72 -9 -31 0 -37 20 -13 18 22 26 19 41 -16 12 -29 13
-30 26 -13 16 21 17 76 2 91 -7 7 7 27 48 66 59 57 73 64 54 29 -16 -30 -13
-57 8 -83 l18 -23 7 22 c6 18 11 20 25 12 42 -22 42 31 1 72 -16 16 -30 34
-30 40 0 24 43 67 78 79 20 6 67 27 104 45 206 103 342 139 418 111z m-1290
-86 l35 -7 -60 -47 c-33 -26 -63 -47 -67 -47 -5 0 -8 27 -8 60 l0 60 33 -6
c17 -4 48 -9 67 -13z m-93 -328 c-3 -10 -5 -4 -5 12 0 17 2 24 5 18 2 -7 2
-21 0 -30z m0 -45 c-3 -8 -6 -5 -6 6 -1 11 2 17 5 13 3 -3 4 -12 1 -19z m226
16 c9 -9 -4 -35 -14 -28 -5 3 -9 -4 -9 -15 0 -12 -4 -21 -10 -21 -5 0 -10 16
-10 35 0 27 4 35 18 35 10 0 21 -3 25 -6z m-53 -114 c0 -5 -4 -10 -9 -10 -6 0
-13 5 -16 10 -3 6 1 10 9 10 9 0 16 -4 16 -10z m4648 -60 c12 -20 9 -40 -6
-40 -12 0 -33 40 -27 50 9 15 19 12 33 -10z m-135 -140 c-3 -11 -7 -20 -9 -20
-2 0 -4 9 -4 20 0 11 4 20 9 20 5 0 7 -9 4 -20z m266 -167 c-1 -38 -4 -57 -6
-43 -3 14 -10 28 -16 32 -9 5 -9 10 1 20 6 6 12 22 12 35 0 13 2 23 5 23 3 0
4 -30 4 -67z m-239 -157 c0 -3 -4 -8 -10 -11 -5 -3 -10 -1 -10 4 0 6 5 11 10
11 6 0 10 -2 10 -4z m48 -8 c7 -7 12 -18 12 -25 0 -11 -4 -11 -20 -1 -11 7
-20 18 -20 25 0 16 12 17 28 1z m-38 -38 c6 -11 7 -20 2 -20 -10 0 -32 21 -32
32 0 16 19 8 30 -12z m-3127 -91 c-3 -12 -1 -24 6 -28 9 -6 8 -11 -4 -21 -13
-11 -15 -7 -15 34 0 26 4 45 9 42 5 -3 7 -15 4 -27z m3113 -66 c-10 -10 -19 5
-10 18 6 11 8 11 12 0 2 -7 1 -15 -2 -18z m-3100 -18 c-3 -9 -10 -14 -15 -10
-6 3 -14 -3 -20 -12 -6 -10 -11 -14 -11 -9 0 12 42 57 48 51 2 -2 2 -11 -2
-20z m2829 -15 c-4 -12 -9 -19 -12 -17 -3 3 -2 15 2 27 4 12 9 19 12 17 3 -3
2 -15 -2 -27z m-3208 -52 c-2 -13 -4 -3 -4 22 0 25 2 35 4 23 2 -13 2 -33 0
-45z m3023 48 c0 -2 -8 -10 -17 -17 -16 -13 -17 -12 -4 4 13 16 21 21 21 13z
m-3267 -139 c-3 -4 -11 -3 -18 3 -16 13 -26 50 -14 50 5 0 9 10 10 23 1 13 6
4 13 -23 7 -25 11 -49 9 -53z m2641 21 c3 -29 2 -48 -4 -48 -6 0 -11 5 -11 10
-2 13 -3 20 -12 53 -8 29 0 55 13 40 4 -4 10 -29 14 -55z m-2995 15 c22 -78 5
-89 -21 -13 -13 41 -14 50 -3 50 8 0 19 -17 24 -37z m561 13 c0 -8 -4 -18 -10
-21 -5 -3 -10 3 -10 14 0 12 5 21 10 21 6 0 10 -6 10 -14z m2266 -12 c-4 -12
-1 -14 13 -9 14 4 21 0 26 -14 10 -33 -6 -50 -31 -33 -17 11 -28 72 -14 72 7
0 10 -7 6 -16z m-2899 -16 c-3 -8 -6 -5 -6 6 -1 11 2 17 5 13 3 -3 4 -12 1
-19z m316 -26 c-8 -33 -20 -18 -15 19 3 23 7 28 13 17 4 -8 5 -24 2 -36z
m2417 34 c0 -3 -4 -8 -10 -11 -5 -3 -10 -1 -10 4 0 6 5 11 10 11 6 0 10 -2 10
-4z m128 -12 c26 -8 10 -22 -30 -27 -31 -4 -45 -2 -51 8 -4 8 -14 12 -22 9 -9
-4 -15 0 -15 9 0 13 9 15 53 11 28 -3 58 -7 65 -10z m-2794 -79 l6 -30 -14 25
c-7 14 -16 41 -20 60 l-6 35 14 -30 c7 -16 16 -43 20 -60z m76 81 c0 -3 -4 -8
-10 -11 -5 -3 -10 -1 -10 4 0 6 5 11 10 11 6 0 10 -2 10 -4z m-260 -32 c0 -8
-4 -12 -10 -9 -5 3 -10 13 -10 21 0 8 5 12 10 9 6 -3 10 -13 10 -21z m220 -45
c0 -5 -4 -9 -10 -9 -5 0 -10 7 -10 16 0 8 5 12 10 9 6 -3 10 -10 10 -16z
m-650 1 c0 -5 -2 -10 -4 -10 -3 0 -8 5 -11 10 -3 6 -1 10 4 10 6 0 11 -4 11
-10z m1340 -259 c0 -38 -4 -61 -12 -64 -10 -3 -13 12 -13 59 0 45 4 64 13 64
8 0 12 -18 12 -59z m190 0 c0 -38 -4 -61 -12 -64 -10 -3 -13 12 -13 59 0 45 4
64 13 64 8 0 12 -18 12 -59z m166 43 c0 -9 13 -24 29 -34 33 -18 44 -46 25
-64 -8 -8 -10 -7 -5 6 5 13 -1 23 -24 35 -32 18 -47 45 -36 63 9 15 13 12 11
-6z m64 6 c0 -5 -2 -10 -4 -10 -3 0 -8 5 -11 10 -3 6 -1 10 4 10 6 0 11 -4 11
-10z m115 -37 c-2 -26 0 -54 5 -62 6 -12 2 -16 -16 -17 -20 -2 -22 1 -13 12 6
7 9 36 7 64 -2 33 1 50 8 50 8 0 11 -17 9 -47z m187 -3 c-2 -28 1 -57 7 -64 9
-11 7 -14 -12 -12 -20 1 -23 5 -18 21 4 11 6 39 5 63 -1 26 2 42 9 42 8 0 11
-17 9 -50z m128 -5 c0 -39 4 -56 16 -63 13 -7 10 -9 -12 -8 l-29 1 3 63 c4 76
22 83 22 7z m70 45 c0 -5 -2 -10 -4 -10 -3 0 -8 5 -11 10 -3 6 -1 10 4 10 6 0
11 -4 11 -10z m217 -20 c-8 -22 -8 -38 0 -60 12 -33 0 -41 -17 -11 -15 29 -12
62 7 83 22 24 23 23 10 -12z m83 20 c0 -5 -2 -10 -4 -10 -3 0 -8 5 -11 10 -3
6 -1 10 4 10 6 0 11 -4 11 -10z m121 -4 c-17 -20 -17 -72 -1 -91 19 -22 52
-15 69 16 12 22 12 29 -2 57 -18 37 -6 43 17 10 22 -32 20 -55 -9 -83 -29 -30
-55 -32 -85 -7 -35 28 -25 112 12 112 6 0 5 -6 -1 -14z m252 -32 c26 -25 47
-53 47 -62 0 -11 -20 4 -55 40 -30 31 -55 60 -55 63 0 14 21 1 63 -41z m223 4
l39 -43 6 45 c6 43 6 42 7 -17 1 -35 0 -63 -2 -63 -4 0 -116 112 -116 117 0 2
6 3 13 3 8 0 31 -19 53 -42z m172 4 c-10 -26 -10 -37 0 -52 19 -30 14 -38 -8
-11 -24 28 -25 49 -4 79 21 31 27 23 12 -16z m106 -6 c7 -28 -21 -75 -50 -82
-14 -4 -28 -4 -31 0 -4 3 3 6 13 6 11 0 25 5 32 12 16 16 15 80 0 97 -11 11
-9 11 9 0 12 -7 24 -22 27 -33z m118 -19 c3 -59 2 -62 -20 -64 -18 -1 -20 2
-11 13 6 7 9 36 7 64 -2 33 1 50 9 50 7 0 13 -24 15 -63z m58 38 c0 -25 -18
-25 -22 -1 -4 17 -1 23 9 19 7 -3 13 -11 13 -18z m-2040 -35 c0 -5 -2 -10 -4
-10 -3 0 -8 5 -11 10 -3 6 -1 10 4 10 6 0 11 -4 11 -10z m670 0 c0 -5 -2 -10
-4 -10 -3 0 -8 5 -11 10 -3 6 -1 10 4 10 6 0 11 -4 11 -10z m1364 -30 c25 -38
25 -49 0 -32 -20 13 -44 72 -30 72 2 0 15 -18 30 -40z m-1048 -26 c-11 -8 -29
-14 -40 -13 -14 1 -10 4 12 10 17 5 32 15 32 21 0 6 3 8 7 4 5 -4 -1 -14 -11
-22z m-1146 1 c-7 -8 -22 -15 -34 -15 -17 1 -16 3 9 15 39 18 40 18 25 0z
m185 -4 c-3 -6 -14 -11 -23 -11 -13 0 -13 2 4 14 21 15 30 14 19 -3z m130 -9
c-6 -7 -45 9 -45 18 0 4 11 3 24 -3 14 -7 23 -13 21 -15z m225 13 c0 -8 -7
-15 -16 -15 -14 0 -14 3 -4 15 7 8 14 15 16 15 2 0 4 -7 4 -15z m314 0 c-4 -8
-11 -15 -16 -15 -6 0 -5 6 2 15 7 8 14 15 16 15 2 0 1 -7 -2 -15z m636 -10 c0
-2 -9 -3 -19 -2 -11 0 -18 5 -15 9 4 6 34 0 34 -7z m215 6 c3 -6 -3 -9 -14 -8
-11 0 -17 5 -15 9 7 11 22 10 29 -1z"/>
<path d="M1910 4695 c0 -20 4 -26 18 -23 9 2 17 12 17 23 0 11 -8 21 -17 23
-14 3 -18 -3 -18 -23z"/>
<path d="M2586 4694 c-10 -26 -7 -34 14 -34 11 0 20 4 20 9 0 17 -12 41 -20
41 -4 0 -11 -7 -14 -16z"/>
<path d="M3062 4708 c-20 -20 -15 -76 8 -88 32 -17 60 4 60 43 0 36 -15 57
-40 57 -9 0 -21 -5 -28 -12z"/>
<path d="M3340 4671 c0 -43 3 -51 18 -51 11 0 27 9 38 21 17 19 17 23 3 47 -8
15 -25 28 -37 30 -20 3 -22 -1 -22 -47z"/>
<path d="M3570 4645 c0 -15 6 -25 14 -25 19 0 28 14 20 34 -10 25 -34 19 -34
-9z"/>
<path d="M2105 4353 c-17 -41 -55 -153 -55 -162 0 -3 34 -6 76 -6 l76 0 -6 30
c-10 49 -58 175 -67 175 -5 0 -16 -17 -24 -37z"/>
<path d="M2964 4399 c-78 -22 -127 -134 -104 -236 31 -141 175 -188 260 -85
87 106 54 277 -63 321 -33 13 -50 13 -93 0z"/>
<path d="M1420 3740 l0 -80 28 6 c56 14 82 42 82 90 0 26 -47 64 -80 64 l-30
0 0 -80z"/>
<path d="M1433 3643 c-9 -3 -13 -34 -13 -105 l0 -100 48 7 c57 8 80 27 88 72
15 78 -58 153 -123 126z"/>
<path d="M4218 2393 c7 -3 16 -2 19 1 4 3 -2 6 -13 5 -11 0 -14 -3 -6 -6z"/>
<path d="M4507 2552 c-33 -35 -34 -44 -3 -29 14 7 22 17 18 26 -3 9 -1 12 6 7
7 -4 12 -1 12 8 0 21 -2 21 -33 -12z"/>
<path d="M4420 2359 c0 -5 5 -7 10 -4 6 3 10 8 10 11 0 2 -4 4 -10 4 -5 0 -10
-5 -10 -11z"/>
<path d="M4535 2020 c-3 -5 1 -10 10 -10 9 0 13 5 10 10 -3 6 -8 10 -10 10 -2
0 -7 -4 -10 -10z"/>
<path d="M4637 2017 c-3 -8 1 -14 8 -14 7 0 11 6 8 14 -3 7 -6 13 -8 13 -2 0
-5 -6 -8 -13z"/>
<path d="M4810 1776 c0 -9 5 -16 10 -16 6 0 10 4 10 9 0 6 -4 13 -10 16 -5 3
-10 -1 -10 -9z"/>
<path d="M4776 1732 c-4 -7 -3 -12 3 -12 6 0 8 -7 4 -16 -5 -15 -3 -15 20 1
31 20 37 41 8 25 -14 -7 -21 -6 -23 2 -3 9 -6 9 -12 0z"/>
<path d="M4913 1517 c-9 -19 -7 -26 10 -40 19 -15 21 -15 33 1 17 22 17 32 -1
32 -7 0 -18 7 -23 15 -7 13 -10 12 -19 -8z"/>
<path d="M4820 1465 c-9 -11 -8 -14 9 -12 22 1 28 12 12 21 -5 3 -14 -1 -21
-9z"/>
<path d="M4202 1370 c0 -14 2 -19 5 -12 2 6 2 18 0 25 -3 6 -5 1 -5 -13z"/>
<path d="M4687 1322 c-19 -21 -22 -32 -7 -32 6 0 10 7 10 15 0 9 6 15 13 14
23 -3 37 1 37 11 0 17 -36 11 -53 -8z"/>
<path d="M3302 1090 c0 -14 2 -19 5 -12 2 6 2 18 0 25 -3 6 -5 1 -5 -13z"/>
<path d="M3302 1025 c0 -16 2 -22 5 -12 2 9 2 23 0 30 -3 6 -5 -1 -5 -18z"/>
<path d="M3724 1004 c3 -9 6 -21 6 -27 0 -8 3 -8 11 0 13 13 5 43 -12 43 -6 0
-8 -7 -5 -16z"/>
<path d="M3311 954 c0 -11 3 -14 6 -6 3 7 2 16 -1 19 -3 4 -6 -2 -5 -13z"/>
<path d="M3695 940 c-3 -5 -1 -10 4 -10 6 0 11 5 11 10 0 6 -2 10 -4 10 -3 0
-8 -4 -11 -10z"/>
<path d="M3731 926 c-8 -10 -8 -16 3 -25 11 -10 14 -7 12 14 -1 29 0 29 -15
11z"/>
<path d="M4176 832 c-4 -12 -13 -20 -19 -16 -7 3 -5 0 3 -8 9 -7 14 -22 12
-33 -2 -16 -1 -17 7 -5 6 8 8 23 5 33 -3 11 -1 16 6 15 7 -2 15 4 17 12 4 12
3 13 -5 1 -8 -11 -11 -10 -14 5 -4 17 -5 17 -12 -4z"/>
<path d="M4196 718 c-4 -15 -5 -32 -1 -37 3 -6 -1 -11 -9 -11 -9 0 -16 -4 -16
-10 0 -12 10 -13 28 -1 9 5 12 22 10 47 -4 37 -4 38 -12 12z"/>
<path d="M3895 659 c-11 -17 1 -21 15 -4 8 9 8 15 2 15 -6 0 -14 -5 -17 -11z"/>
<path d="M327 1583 c3 -7 1 -13 -5 -13 -5 0 -12 -7 -16 -15 -10 -26 20 -16 32
10 15 32 15 32 -2 32 -8 0 -12 -6 -9 -14z"/>
<path d="M287 1469 c4 -13 8 -18 11 -10 2 7 -1 18 -6 23 -8 8 -9 4 -5 -13z"/>
<path d="M260 1450 c0 -11 4 -20 9 -20 5 0 7 9 4 20 -3 11 -7 20 -9 20 -2 0
-4 -9 -4 -20z"/>
<path d="M151 1230 c1 -29 15 -54 23 -42 4 7 0 22 -8 34 -10 14 -16 17 -15 8z"/>
<path d="M71 1196 c-8 -9 -8 -16 -2 -20 6 -4 15 3 21 14 12 23 -2 27 -19 6z"/>
<path d="M60 910 c0 -5 -7 -10 -15 -10 -19 0 -19 -7 0 -26 8 -9 15 -26 15 -40
0 -13 5 -24 10 -24 6 0 10 7 10 15 0 18 16 20 23 3 4 -10 6 -10 6 0 1 6 11 12
23 12 21 0 21 0 3 14 -16 11 -17 17 -7 29 10 12 10 16 -3 21 -8 3 -22 3 -30 0
-8 -4 -15 -1 -15 5 0 6 -4 11 -10 11 -5 0 -10 -4 -10 -10z"/>
<path d="M174 895 c-1 -16 3 -25 13 -25 10 0 13 6 9 16 -3 9 -6 20 -6 25 0 21
-15 7 -16 -16z"/>
<path d="M1530 858 c0 -32 3 -39 10 -28 13 20 13 70 0 70 -5 0 -10 -19 -10
-42z"/>
<path d="M1572 870 c0 -19 2 -27 5 -17 2 9 2 25 0 35 -3 9 -5 1 -5 -18z"/>
<path d="M30 835 c0 -8 4 -15 10 -15 5 0 7 7 4 15 -4 8 -8 15 -10 15 -2 0 -4
-7 -4 -15z"/>
<path d="M168 843 c7 -3 16 -2 19 1 4 3 -2 6 -13 5 -11 0 -14 -3 -6 -6z"/>
<path d="M78 737 c-13 -10 -16 -16 -8 -14 8 2 23 -2 32 -10 14 -12 20 -12 40
-2 13 7 26 12 31 11 4 -1 7 7 7 18 0 17 -6 19 -40 17 -22 -1 -50 -10 -62 -20z"/>
<path d="M237 709 c7 -7 15 -10 18 -7 3 3 -2 9 -12 12 -14 6 -15 5 -6 -5z"/>
<path d="M171 684 c0 -11 3 -14 6 -6 3 7 2 16 -1 19 -3 4 -6 -2 -5 -13z"/>
<path d="M41 540 c6 -16 15 -30 20 -30 5 0 3 14 -6 30 -9 17 -17 30 -20 30 -2
0 1 -13 6 -30z"/>
<path d="M55 1880 c-3 -5 -1 -10 4 -10 6 0 11 5 11 10 0 6 -2 10 -4 10 -3 0
-8 -4 -11 -10z"/>
</g>
</svg>
